# xmcd
#
# Track frame offsets: 
#        150
#        13141
#        25369
#        44852
#        53728
#        68574
#        82554
#        92102
#        113225
#        131220
#        154446
#        183733
#        194421
#        206730
#
# Disc length: 3038 seconds
#
# Revision: 0
# Processed by: cddbd v1.5.2PL0 Copyright (c) Steve Scherf et al.
# Submitted via: ExactAudioCopy v0.95b3
#
DISCID=cb0bdc0e
DTITLE=Cream  - Fresh Cream (DCC) 
DYEAR=1900
DGENRE=
TTITLE0=I Feel Free
TTITLE1=N.S.U.
TTITLE2=Sleepy Time Time
TTITLE3=Dreaming
TTITLE4=Sweet Wine
TTITLE5=Cat's Squirrel
TTITLE6=Four Until Late
TTITLE7=Rollin' And Tumblin'
TTITLE8=I'm So Glad (Mono)
TTITLE9=Toad
TTITLE10=Spoonful
TTITLE11=Wrapping Paper
TTITLE12=The Coffee Song
TTITLE13=Rollin' And Tumblin' (Mono)
EXTD=
EXTT0=
EXTT1=
EXTT2=
EXTT3=
EXTT4=
EXTT5=
EXTT6=
EXTT7=
EXTT8=
EXTT9=
EXTT10=
EXTT11=
EXTT12=
EXTT13=
PLAYORDER=
